<svg width="64px" height="64px" viewBox="0 0 24 24" fill="none" xmlns="http://www.w3.org/2000/svg">
  <path fill-rule="evenodd" clip-rule="evenodd" d="M12 2C7.58172 2 4 3.79086 4 6V18C4 20.2091 7.58172 22 12 22C16.4183 22 20 20.2091 20 18V6C20 3.79086 16.4183 2 12 2ZM18 6C18 7.65685 15.3137 9 12 9C8.68629 9 6 7.65685 6 6C6 4.34315 8.68629 3 12 3C15.3137 3 18 4.34315 18 6ZM6 17.486C7.14204 18.3157 9.38251 19 12 19C14.6175 19 16.858 18.3157 18 17.486V14.268C16.858 15.0977 14.6175 15.782 12 15.782C9.38251 15.782 7.14204 15.0977 6 14.268V17.486ZM6 13.268C7.14204 14.0977 9.38251 14.782 12 14.782C14.6175 14.782 16.858 14.0977 18 13.268V10.268C16.858 11.0977 14.6175 11.782 12 11.782C9.38251 11.782 7.14204 11.0977 6 10.268V13.268Z" fill="#FFBC5E"/>
</svg>
